<svg width="133" height="40" fill="none" xmlns="http://www.w3.org/2000/svg"><path d="M13.344 26H1.44V3.6h4.032v18.688h7.872V26zm5.275-16v9.568c0 1.259.117 2.133.352 2.624.234.49.66.736 1.28.736.597 0 1.098-.213 1.503-.64.406-.448.694-.981.864-1.6V10h3.809v11.136c0 .875.032 1.739.096 2.592.064.832.18 1.59.352 2.272h-2.88l-.672-2.176h-.096a5.34 5.34 0 01-1.665 1.856c-.682.49-1.536.736-2.56.736-.66 0-1.247-.096-1.76-.288-.512-.17-.949-.48-1.312-.928-.362-.448-.64-1.056-.832-1.824-.192-.79-.288-1.781-.288-2.976V10h3.809zm20.04 15.136c-.533.427-1.173.747-1.92.96a8.122 8.122 0 01-2.24.32c-1.087 0-2.005-.192-2.751-.576a5.045 5.045 0 01-1.792-1.696c-.47-.747-.81-1.632-1.024-2.656-.192-1.045-.288-2.208-.288-3.488 0-2.795.501-4.896 1.504-6.304 1.002-1.408 2.474-2.112 4.416-2.112.96 0 1.738.085 2.336.256a7.66 7.66 0 011.632.64l-.896 3.168a5.15 5.15 0 00-1.12-.416c-.342-.107-.758-.16-1.248-.16-.896 0-1.568.395-2.016 1.184-.448.768-.672 2.016-.672 3.744 0 1.45.224 2.635.672 3.552.47.917 1.205 1.376 2.208 1.376.533 0 .981-.064 1.344-.192a5.47 5.47 0 001.056-.544l.8 2.944zm1.78-14.176c.64-.384 1.44-.693 2.4-.928.96-.235 2.048-.352 3.264-.352 1.814 0 3.072.47 3.776 1.408.726.939 1.088 2.272 1.088 4 0 1.003-.032 1.995-.096 2.976-.042.96-.074 1.91-.096 2.848-.021.917-.01 1.813.032 2.688.064.853.214 1.664.448 2.432h-3.104l-.608-1.952h-.128a4.309 4.309 0 01-1.44 1.536c-.618.405-1.397.608-2.336.608-1.258 0-2.25-.416-2.976-1.248-.725-.853-1.088-1.984-1.088-3.392 0-1.92.683-3.285 2.048-4.096 1.366-.81 3.21-1.152 5.536-1.024.107-1.237.022-2.133-.256-2.688-.256-.555-.821-.832-1.696-.832-.64 0-1.301.075-1.984.224-.682.15-1.29.363-1.824.64l-.96-2.848zm4.576 12c.576 0 1.046-.139 1.408-.416.363-.299.63-.619.8-.96v-2.656a6.271 6.271 0 00-1.408-.032 3.858 3.858 0 00-1.184.288c-.341.15-.618.373-.832.672-.192.277-.288.64-.288 1.088 0 .661.128 1.163.384 1.504.278.341.65.512 1.12.512zm23.078-2.72c0-.683-.203-1.259-.609-1.728a7.48 7.48 0 00-1.535-1.376 35.652 35.652 0 00-1.984-1.312 12.568 12.568 0 01-1.985-1.568 8.048 8.048 0 01-1.503-2.112c-.406-.81-.608-1.803-.608-2.976 0-1.088.16-2.005.48-2.752.34-.768.8-1.387 1.376-1.856a5.203 5.203 0 012.047-1.056 8.829 8.829 0 012.529-.352c1.087 0 2.1.107 3.04.32.938.213 1.717.501 2.336.864l-1.249 3.552c-.362-.256-.906-.49-1.632-.704a7.914 7.914 0 00-2.303-.32c-.832 0-1.472.17-1.92.512-.448.341-.672.843-.672 1.504 0 .597.202 1.13.607 1.6.406.448.907.885 1.505 1.312.618.427 1.28.875 1.983 1.344.726.448 1.387.981 1.985 1.6a7.531 7.531 0 011.535 2.144c.406.81.608 1.781.608 2.912 0 1.13-.17 2.112-.511 2.944a5.295 5.295 0 01-1.409 2.08c-.597.533-1.322.939-2.175 1.216-.854.277-1.803.416-2.849.416-1.322 0-2.485-.128-3.488-.384-.98-.256-1.738-.544-2.272-.864l1.313-3.616c.426.256 1.013.512 1.76.768a7.35 7.35 0 002.4.384c2.133 0 3.2-.832 3.2-2.496zM73.002 10h1.76V6.992l3.808-1.184V10h3.104v3.392h-3.104v6.976c0 .917.085 1.568.256 1.952.192.384.523.576.992.576.32 0 .608-.032.864-.096s.533-.16.832-.288l.48 3.04a7.671 7.671 0 01-1.632.576c-.619.17-1.27.256-1.952.256-1.216 0-2.133-.352-2.752-1.056-.597-.704-.896-1.888-.896-3.552v-8.384h-1.76V10zm14.24 0v9.568c0 1.259.118 2.133.353 2.624.234.49.66.736 1.28.736.597 0 1.098-.213 1.503-.64.406-.448.694-.981.864-1.6V10h3.809v11.136c0 .875.031 1.739.095 2.592.064.832.182 1.59.352 2.272h-2.88l-.671-2.176h-.096a5.34 5.34 0 01-1.665 1.856c-.682.49-1.535.736-2.56.736-.66 0-1.248-.096-1.76-.288-.511-.17-.949-.48-1.312-.928-.362-.448-.64-1.056-.832-1.824-.192-.79-.287-1.781-.287-2.976V10h3.807zm22.09 10.368c0 .896.01 1.792.032 2.688.021.896.106 1.888.256 2.976h-2.688l-.512-1.856h-.128c-.726 1.493-1.995 2.24-3.808 2.24-1.622 0-2.902-.64-3.84-1.92-.918-1.28-1.376-3.36-1.376-6.24 0-2.816.501-4.95 1.504-6.4 1.002-1.472 2.496-2.208 4.48-2.208.512 0 .938.032 1.28.096.341.064.672.17.992.32V3.6h3.808v16.768zm-5.952 2.56c.576 0 1.034-.139 1.376-.416.341-.299.597-.725.768-1.28V13.68a1.946 1.946 0 00-.736-.416c-.256-.085-.598-.128-1.024-.128-.854 0-1.494.384-1.92 1.152-.427.768-.64 2.133-.64 4.096 0 1.472.17 2.603.512 3.392.362.768.917 1.152 1.664 1.152zM112.415 10h3.808v16h-3.808V10zm-.416-4.512c0-.64.202-1.163.608-1.568.405-.427.981-.64 1.728-.64.746 0 1.344.203 1.792.608.448.405.672.939.672 1.6 0 .661-.224 1.184-.672 1.568-.448.384-1.046.576-1.792.576-.747 0-1.323-.192-1.728-.576-.406-.405-.608-.928-.608-1.568zM118.706 18c0-2.837.555-4.95 1.664-6.336 1.11-1.387 2.656-2.08 4.64-2.08 2.134 0 3.723.704 4.768 2.112 1.046 1.408 1.568 3.51 1.568 6.304 0 2.859-.554 4.981-1.664 6.368-1.109 1.365-2.666 2.048-4.672 2.048-4.202 0-6.304-2.805-6.304-8.416zm3.936 0c0 1.6.182 2.837.544 3.712.363.875.971 1.312 1.824 1.312.811 0 1.408-.373 1.792-1.12.406-.768.608-2.07.608-3.904 0-1.643-.181-2.89-.544-3.744-.362-.853-.981-1.28-1.856-1.28-.746 0-1.333.384-1.76 1.152-.405.747-.608 2.037-.608 3.872zM36.484 35.804H33.16L32.272 38h-1.176l3.456-8.52h.624L38.644 38h-1.248l-.912-2.196zm-2.964-1.008h2.616l-.972-2.388-.324-1.284h-.024l-.324 1.308-.972 2.364zm8.442-5.112c.168-.032.352-.06.552-.084a16.451 16.451 0 011.836-.108c.4 0 .784.04 1.152.12.376.08.704.212.984.396.288.184.516.424.684.72.176.296.264.66.264 1.092 0 .336-.052.64-.156.912a2.333 2.333 0 01-.432.72 2.525 2.525 0 01-.66.528 3.32 3.32 0 01-.816.312l.624.42L48.25 38h-1.38l-2.496-3.54-1.212-.168V38h-1.2v-8.316zm2.424.84h-.348c-.112 0-.224.004-.336.012a26.56 26.56 0 00-.312.024 1.24 1.24 0 00-.228.036V33.5h.984c.288 0 .552-.028.792-.084.248-.064.46-.156.636-.276.184-.128.328-.292.432-.492.104-.2.156-.444.156-.732 0-.432-.152-.772-.456-1.02-.304-.248-.744-.372-1.32-.372zm12.874.132h-2.832V38h-1.2v-7.344h-2.832V29.6h6.864v1.056zm5.297 4.392l.192 1.404h.024l.216-1.428 1.86-5.424h.6l1.872 5.448.216 1.404h.024l.228-1.428 1.488-5.424h1.176l-2.556 8.52h-.684l-1.836-5.46-.252-1.272h-.06l-.24 1.284-1.836 5.448h-.696L59.69 29.6h1.26l1.608 5.448zM73.172 33.8c0-.688.084-1.3.252-1.836.176-.544.424-1 .744-1.368.328-.376.724-.66 1.188-.852.472-.2 1.004-.3 1.596-.3.632 0 1.184.108 1.656.324.48.208.876.504 1.188.888.32.376.556.832.708 1.368.16.536.24 1.128.24 1.776 0 .688-.088 1.304-.264 1.848a3.762 3.762 0 01-.744 1.368 3.317 3.317 0 01-1.2.852c-.464.192-.992.288-1.584.288-.64 0-1.196-.104-1.668-.312a3.271 3.271 0 01-1.176-.888 3.953 3.953 0 01-.708-1.38 6.498 6.498 0 01-.228-1.776zm1.272 0c0 .456.048.884.144 1.284.104.4.256.752.456 1.056.208.304.468.544.78.72.32.176.696.264 1.128.264.776 0 1.388-.268 1.836-.804.456-.536.684-1.376.684-2.52 0-.448-.052-.872-.156-1.272a3.154 3.154 0 00-.456-1.056c-.2-.304-.46-.544-.78-.72-.312-.184-.688-.276-1.128-.276-.768 0-1.38.272-1.836.816-.448.544-.672 1.38-.672 2.508zm10.225-4.116c.168-.032.352-.06.552-.084a16.451 16.451 0 011.836-.108c.4 0 .784.04 1.152.12.376.08.704.212.984.396.288.184.516.424.684.72.176.296.264.66.264 1.092 0 .336-.052.64-.156.912a2.333 2.333 0 01-.432.72 2.525 2.525 0 01-.66.528 3.32 3.32 0 01-.816.312l.624.42L90.957 38h-1.38l-2.496-3.54-1.212-.168V38h-1.2v-8.316zm2.424.84h-.348c-.112 0-.224.004-.336.012a26.56 26.56 0 00-.312.024 1.24 1.24 0 00-.228.036V33.5h.984c.288 0 .552-.028.792-.084.248-.064.46-.156.636-.276.184-.128.328-.292.432-.492.104-.2.156-.444.156-.732 0-.432-.152-.772-.456-1.02-.304-.248-.744-.372-1.32-.372zm9.364 3.66h-.588V38h-1.2v-8.4h1.2v3.864l.552-.168 3.024-3.696h1.368l-3.024 3.6-.564.408.66.48L101.22 38h-1.512l-3.252-3.816z" fill="#fff"/><path d="M1.4 26.5h130" stroke="#fff"/></svg>