<svg width="38" height="47" fill="none" xmlns="http://www.w3.org/2000/svg"><path d="M6.688 8.438h20.625M6.688 15h20.625M6.688 21.563h20.625" stroke="#fff" stroke-width="1.5" stroke-linecap="round" stroke-linejoin="round"/><path d="M8.722 34.42l.14-1.47h-.07l-.532 1.344-2.548 4.424h-.35L2.66 34.28l-.504-1.33h-.07l.196 1.456V41H1.19v-9.8h.868l3.066 5.012.462 1.092h.028l.434-1.12L8.974 31.2h.91V41H8.722v-6.58zm3.542-3.22h5.334v1.036h-4.172v3.206h3.822v1.036h-3.822v3.486h4.242V41h-5.404v-9.8zm9.27 3.388l-.756-1.414h-.056l.14 1.414V41H19.77v-9.954h.616l4.69 6.538.728 1.344h.07l-.154-1.344V31.2h1.092v9.954h-.616l-4.662-6.566zM34.818 31.2h1.12v6.538c0 .588-.08 1.097-.238 1.526-.15.43-.369.784-.658 1.064-.28.27-.62.471-1.022.602-.401.13-.845.196-1.33.196-1.157 0-2.03-.261-2.618-.784-.588-.523-.882-1.316-.882-2.38V31.2h1.162v6.216c0 .495.047.915.14 1.26.103.336.252.611.448.826.196.205.439.355.728.448.299.093.644.14 1.036.14.756 0 1.297-.205 1.624-.616.327-.42.49-1.106.49-2.058V31.2z" fill="#fff"/></svg>